<svg id="Layer_1" data-name="Layer 1" xmlns="http://www.w3.org/2000/svg" viewBox="0 0 512 512"><defs><style>.cls-1{fill:#495875;}.cls-2{fill:#2686ef;}</style></defs><title>gesture-49-filled</title><path class="cls-1" d="M508.39,201.71h-18a65.87,65.87,0,0,1-46.89-19.42l-58.85-58.85a28.54,28.54,0,0,0-42.23,2.07c-9.23,11.17-8.08,28.32,2.63,39l24.82,24.81a7.23,7.23,0,0,1-5.11,12.34H214.6a27.13,27.13,0,0,0-20.06,8.88,26.86,26.86,0,0,0-6.92,20.87c1.31,13.72,13.6,24.46,28,24.46h62.84c-.57.53-1.13,1.08-1.65,1.67a26.88,26.88,0,0,0-6.92,20.87c1.31,13.72,13.6,24.46,28,24.46H302c-.57.53-1.12,1.08-1.65,1.66a26.9,26.9,0,0,0-6.93,20.89c1.26,13.15,12.63,23.58,26.26,24.41-.59.54-1.16,1.11-1.7,1.71A26.9,26.9,0,0,0,311,372.49c1.32,13.71,13.61,24.46,28,24.46h46.56a100.57,100.57,0,0,0,34.68-6.15l10.21-3.74A126.31,126.31,0,0,1,474,379.31h34.36a3.6,3.6,0,0,0,3.61-3.61V205.31A3.6,3.6,0,0,0,508.39,201.71ZM504.79,372.1H474A133.58,133.58,0,0,0,428,380.28L417.77,384a93.34,93.34,0,0,1-32.2,5.72H339c-10.71,0-19.86-7.88-20.82-17.93A19.9,19.9,0,0,1,338,349.94h11.75a3.61,3.61,0,1,0,0-7.21H321.38c-10.71,0-19.86-7.88-20.82-17.93a19.9,19.9,0,0,1,19.8-21.87h11.75a3.61,3.61,0,1,0,0-7.21H297.87c-10.71,0-19.86-7.88-20.81-17.94a19.73,19.73,0,0,1,5.07-15.35,20,20,0,0,1,14.73-6.51h11.75a3.61,3.61,0,1,0,0-7.21h-93c-10.71,0-19.86-7.88-20.81-17.94a19.73,19.73,0,0,1,5.07-15.34,20,20,0,0,1,14.73-6.51H364.72a14.44,14.44,0,0,0,10.21-24.65l-24.82-24.81c-8.11-8.12-9.06-21-2.17-29.35a21.17,21.17,0,0,1,15.46-7.79,21.61,21.61,0,0,1,16.11,6.23l58.84,58.85a73,73,0,0,0,52,21.54h14.44Z"/><path class="cls-2" d="M119,222.9H12.31l37.11-37.11a3.61,3.61,0,1,0-5.1-5.1L1.06,224a3.6,3.6,0,0,0,0,5.1l43.27,43.27a3.61,3.61,0,0,0,5.1-5.1L12.31,230.12H119a3.61,3.61,0,1,0,0-7.21Z"/></svg>