<svg id="Layer_1" data-name="Layer 1" xmlns="http://www.w3.org/2000/svg" viewBox="0 0 512 512"><defs><style>.cls-1{fill:#495875;}.cls-2{fill:#2686ef;}</style></defs><title>gesture-50-filled</title><path class="cls-1" d="M297.4,201.71H147.28a7.23,7.23,0,0,1-5.11-12.35L167,164.55c10.71-10.72,11.87-27.87,2.63-39a28.28,28.28,0,0,0-20.69-10.39,27.89,27.89,0,0,0-21.54,8.32L68.54,182.29a65.87,65.87,0,0,1-46.89,19.42h-18A3.6,3.6,0,0,0,0,205.31V375.71a3.6,3.6,0,0,0,3.61,3.61H38a126.31,126.31,0,0,1,43.58,7.74l10.21,3.74a100.57,100.57,0,0,0,34.68,6.15H173c14.39,0,26.68-10.75,28-24.46a26.89,26.89,0,0,0-6.93-20.88c-.54-.6-1.11-1.17-1.7-1.71,13.63-.83,25-11.25,26.26-24.42a26.89,26.89,0,0,0-6.93-20.88c-.53-.58-1.08-1.13-1.65-1.66h4.08c14.39,0,26.68-10.75,28-24.46a26.88,26.88,0,0,0-6.92-20.88c-.53-.58-1.08-1.14-1.65-1.67h62.84c14.39,0,26.68-10.75,28-24.46a26.86,26.86,0,0,0-6.92-20.88A27.13,27.13,0,0,0,297.4,201.71Zm19.8,29.08c-1,10-10.1,17.93-20.81,17.93h-93a3.61,3.61,0,0,0,0,7.21h11.75a20,20,0,0,1,14.73,6.51,19.73,19.73,0,0,1,5.07,15.35c-1,10-10.1,17.93-20.81,17.93H179.88a3.61,3.61,0,1,0,0,7.21h11.75a19.9,19.9,0,0,1,19.8,21.86c-1,10.06-10.11,17.94-20.82,17.94H162.25a3.61,3.61,0,0,0,0,7.21H174a19.9,19.9,0,0,1,19.8,21.86c-1,10.06-10.11,17.94-20.82,17.94H126.44A93.34,93.34,0,0,1,94.23,384L84,380.28A133.58,133.58,0,0,0,38,372.1H7.21V208.92H21.65a73,73,0,0,0,52-21.54l58.84-58.85a21.57,21.57,0,0,1,16.11-6.23,21.17,21.17,0,0,1,15.46,7.79c6.89,8.34,5.94,21.23-2.17,29.35l-24.82,24.81a14.45,14.45,0,0,0,10.21,24.66H297.4a20,20,0,0,1,14.73,6.51A19.74,19.74,0,0,1,317.2,230.79Z"/><path class="cls-2" d="M510.94,224l-43.27-43.27a3.61,3.61,0,1,0-5.1,5.1l37.11,37.11H393a3.61,3.61,0,1,0,0,7.21H499.69l-37.11,37.11a3.61,3.61,0,1,0,5.1,5.1l43.27-43.27A3.6,3.6,0,0,0,510.94,224Z"/></svg>